<?xml version="1.0" encoding="UTF-8" standalone="no"?>
<svg width="54px" height="112px" viewBox="0 0 54 112" version="1.1" xmlns="http://www.w3.org/2000/svg" xmlns:xlink="http://www.w3.org/1999/xlink" xmlns:sketch="http://www.bohemiancoding.com/sketch/ns">
    <!-- Generator: Sketch 3.3.2 (12043) - http://www.bohemiancoding.com/sketch -->
    <title>mic</title>
    <desc>Created with Sketch.</desc>
    <defs></defs>
    <g id="Page-1" stroke="none" stroke-width="1" fill="none" fill-rule="evenodd" sketch:type="MSPage">
        <g id="Home-Page" sketch:type="MSArtboardGroup" transform="translate(-45.000000, -874.000000)" fill="#4A4A4A">
            <g id="Events" sketch:type="MSLayerGroup" transform="translate(45.000000, 874.000000)">
                <g id="mic" transform="translate(0.500000, 0.000000)" sketch:type="MSShapeGroup">
                    <g id="Group">
                        <path d="M24.5,84.1456061 L24.5,98.0606061 L14.119,98.0606061 C10.1255,98.0606061 7.119,101.054091 7.119,105.030303 L7.119,110.257576 C7.119,111.219394 7.903,112 8.869,112 L43.869,112 C44.835,112 45.619,111.219394 45.619,110.257576 L45.619,105.291667 C45.619,101.235303 42.5425,98.0606061 38.619,98.0606061 L28,98.0606061 L28,84.1456061 C41.9055,83.1768182 52.738,71.7395455 52.738,57.7862121 L52.738,51.210303 C52.738,50.1822727 51.9015,49.3493939 50.869,49.3493939 C49.8365,49.3493939 49,50.1857576 49,51.2137879 L49,57.789697 C49,70.324697 38.85,80.5178788 26.369,80.5178788 C13.888,80.5178788 3.738,70.3212121 3.738,57.789697 L3.738,51.2137879 C3.738,50.1857576 2.9015,49.3528788 1.869,49.3528788 C0.8365,49.3528788 0,50.1857576 0,51.2137879 L0,57.789697 C0,71.7395455 10.8325,83.1768182 24.5,84.1456061 L24.5,84.1456061 Z M42.119,105.291667 L42.119,108.515152 L10.619,108.515152 L10.619,105.030303 C10.619,102.977727 12.0575,101.545455 14.119,101.545455 L38.619,101.545455 C40.614,101.545455 42.119,103.155455 42.119,105.291667 L42.119,105.291667 Z" id="Shape"></path>
                        <path d="M26.369,0.366363636 C17.619,0.366363636 10.5,7.54166667 10.5,16.365303 L10.5,57.789697 C10.5,66.6098485 17.619,73.7886364 26.369,73.7886364 C35.119,73.7886364 42.238,66.6098485 42,57.789697 L42,16.365303 C42.238,7.54166667 35.119,0.366363636 26.369,0.366363636 L26.369,0.366363636 Z M38.5,57.7862121 C38.5,64.5537879 33.0575,70.0598485 26.369,70.0598485 C19.6805,70.0598485 14,64.5572727 14,57.7862121 L14,16.365303 C14,9.59772727 19.6805,4.09166667 26.369,4.09166667 C33.0575,4.09166667 38.5,9.59424242 38.5,16.365303 L38.5,57.7862121 L38.5,57.7862121 Z" id="Shape"></path>
                    </g>
                </g>
            </g>
        </g>
    </g>
</svg>